M48
;Layer_Color=9474304
;FILE_FORMAT=2:5
INCH,LZ
;TYPE=PLATED
T1F00S00C0.01181
T2F00S00C0.01200
;TYPE=NON_PLATED
T4F00S00C0.02559
%
T01
X0087401Y00278
X0089Y00293
X01063Y00221
X0121342Y0016158
X01247Y00176
X01227Y00017
X01449Y00075
X0146907Y00181
X01419Y00186
Y00236
X01464Y00264
X01463Y00307
X0149972Y00303
X01307Y00311
Y00363
X01287Y00411
X01252Y00471
X0123Y0046757
X01193Y00489
X01217Y0056
X01233Y00576
X01306Y00505
X0147007Y0052265
X0147972Y0055072
X0159639Y0056439
X01733Y0048
X01732Y00318
X0169369Y0023275
Y0017369
X01729Y00094
X00843Y0019876
X00811
X0077953Y0026622
X0074803
X00795Y00293
X0084252
X00816Y0048
X0069869Y0055502
Y0057841
X0061896Y0053991
X0059857Y0055028
X0057876Y0053909
X005592Y0055028
X005392Y0053928
X00578Y00438
X0040096Y004454
X0038099Y0043437
X00342Y00432
X00367Y00344
X00463Y0035548
X00245Y00372
Y00404
X00077Y00472
X00217Y00165
X00153Y001
X0012Y00041
X0026863Y00073
X0034886Y0018
X00393Y00176
X00419Y00133
X00483Y00118
X00499Y00044
X00547Y00047
X00543Y0007
X00575Y0003
X00624Y00032
X00631Y00055
X00717Y00032
X0081054Y0001996
X00633Y00169
X00541Y00173
X00652Y0026
X00429Y00588
X0026905Y0061275
X0028008Y0063215
X0026905Y0065212
Y0069149
X0028008Y0071089
X0026905Y0073086
X00281Y00751
X0026892Y0077036
X0028175Y0086971
X0027072Y0088968
X0028175Y0094845
X0027072Y0096842
X00288Y00988
X0027193Y0100618
X00246Y01058
X00243Y01094
X00224Y01106
X00178Y01089
X0020253Y0116947
X0028282Y0113382
X00327Y01175
X00375Y01229
X00376Y01306
X004207Y01283
X00511Y01254
X00585
X005805Y012305
X0057784Y01047
X0059753Y01037
X0061721Y01047
X00622Y00984
X0069595Y01037
X0071563Y01047
X0073532Y01037
X00755Y01047
X00758Y00987
X00769Y00967
X0075883Y0094376
Y0091983
Y0089591
Y0087198
Y0084805
Y0082412
Y0080107
X00772Y00771
X0064069Y00737
X0061764
X0059371
X0056978
X00498Y00763
X0045142Y0080958
X0045973Y01037
X0047941Y01047
X004991Y01037
X0051878Y01047
X0044004
X0038099Y01037
X003613Y01047
X0034162Y01037
X00363Y00971
X00127Y00873
X0009671Y0083271
X00057Y0085
X0003152Y0077951
X0006722Y0067178
X00104Y01262
X00154Y01266
X00071Y01318
X00247
X00297Y01408
X00506Y0141
X0062009Y01413
X00748
X0069869Y0067198
Y0064859
Y006252
Y006018
X0062Y00594
X0097972Y00593
X0097312Y007208
X0099508
X0101704
X01039
X0101558Y0077542
X0095116Y0072084
X0092936
X0087363Y0075514
X0085458Y0100643
X0094429Y0098571
X0098Y01007
X01038Y01092
X01062Y01091
X0120272Y01102
X0123972Y0110072
X01281Y01315
X0134358Y0127032
X0136357Y0125879
X0138294Y0127032
X0140295Y0125879
X0142232Y0127032
X0144231Y0125879
X0148Y01157
X0150141Y0116941
X015211Y0118573
X0156047
X0167858Y0118458
X01689Y01142
Y01118
Y01005
X01731Y01004
Y00981
Y00958
X0175414
Y00981
Y01004
X0177729
Y00981
Y00958
X0180043
Y00981
Y01004
X0182357
Y00981
Y00958
X0184671
Y00981
Y01004
X0186986
Y00981
Y00958
X01893
Y00981
X01893Y01004
X0185574Y0116941
X0183606Y0118573
X0169826Y0126342
X0165889
X0163881Y012741
X01579Y0131
X01596Y01356
X01523Y01349
X01736Y01372
X01726Y00871
X01746Y00734
X01803Y00765
X01628Y00758
X01485Y0078
X0140799Y0079199
Y0071901
X0150029Y0060829
X0159639Y00604
X0162305Y00932
X0153311Y0089811
X01532Y00986
X01417Y01001
X01367Y00934
X015Y01089
X0128346Y0143973
X0125197
X0122047
X0118897
X011574
X0112646Y01395
X010944
X01063
X0103146
X01077Y01301
X0109401Y01318
X01Y0122047
X0096851
X0106Y00851
X01143Y00801
Y007775
Y00754
X01125Y00624
T02
X01544Y00106
X01773Y00065
X01848Y00115
X01898
X01923Y00165
X01873
X01898Y00215
X01848
X01873Y00265
X01923
X01898Y00315
X01848
X01923Y00365
Y00465
X01873
X01898Y00515
X01848
X01873Y00565
X01923
X01823
X01598Y00415
X0157459Y00375
X01623Y00365
X01423Y00565
X01323
X01273
X01923Y00065
X00113Y00141
X0003598Y0011577
X00023Y00165
X00473Y00565
X00523
Y00965
X00573
X00648Y01015
X00423Y00965
X00323
X003025Y0103964
X0030096Y0121451
X00373Y01165
X00348Y01415
X00248
X00198
X00148
X00098
X00073Y01365
X00023Y01265
X00048Y01215
X00073Y01165
X00075Y0113745
X00023Y01165
Y01065
X00048Y01015
X00073Y00965
X00023
X00048Y00915
X00023Y00865
X00048Y00815
X00473Y01365
X00548Y01415
X00598Y01315
X01773Y01365
X01777Y0126559
X01723Y01165
X01805Y0112859
X01934
X01898Y01415
X01848
Y00815
X0191813Y0078644
X01898Y00715
X01848
X01873Y00665
X01923
X01898Y00615
X01848
X01823Y00665
X0153557Y0060443
X01534Y00762
X01673Y00965
X01734Y00928
T04
X0171Y0008944
Y00317
X017113Y0048014
Y007077
M30
