G04*
G04 #@! TF.GenerationSoftware,Altium Limited,Altium Designer,20.0.2 (26)*
G04*
G04 Layer_Color=16711935*
%FSLAX25Y25*%
%MOIN*%
G70*
G01*
G75*
%ADD15C,0.01000*%
%ADD20C,0.00600*%
D15*
X0Y145669D02*
X196835D01*
Y0D02*
Y145669D01*
X0Y0D02*
X196835D01*
X0D02*
Y145669D01*
Y-7900D02*
X6000Y-5900D01*
X0Y-7900D02*
X6000Y-9900D01*
X190835D02*
X196835Y-7900D01*
X190835Y-5900D02*
X196835Y-7900D01*
X0D02*
X75724D01*
X117911D02*
X196835D01*
X0Y-8900D02*
Y-1500D01*
X196835Y-8900D02*
Y-1500D01*
X-12600Y6000D02*
X-10600Y0D01*
X-8600Y6000D01*
X-10600Y145669D02*
X-8600Y139669D01*
X-12600D02*
X-10600Y145669D01*
Y0D02*
Y50141D01*
Y92328D02*
Y145669D01*
X-11600Y0D02*
X-1500D01*
X-11600Y145669D02*
X-1500D01*
D20*
X61221Y15748D02*
G03*
X61221Y15748I-2559J0D01*
G01*
X139961Y15748D02*
G03*
X139961Y15748I-1772J0D01*
G01*
X61221Y129921D02*
G03*
X61221Y129921I-2559J0D01*
G01*
X139961Y129921D02*
G03*
X139961Y129921I-1772J0D01*
G01*
X81323Y-5501D02*
X77324D01*
Y-8500D01*
X79323Y-7500D01*
X80323D01*
X81323Y-8500D01*
Y-10499D01*
X80323Y-11499D01*
X78324D01*
X77324Y-10499D01*
X83322Y-6501D02*
X84322Y-5501D01*
X86321D01*
X87321Y-6501D01*
Y-10499D01*
X86321Y-11499D01*
X84322D01*
X83322Y-10499D01*
Y-6501D01*
X89320Y-11499D02*
Y-10499D01*
X90320D01*
Y-11499D01*
X89320D01*
X94318Y-6501D02*
X95318Y-5501D01*
X97318D01*
X98317Y-6501D01*
Y-10499D01*
X97318Y-11499D01*
X95318D01*
X94318Y-10499D01*
Y-6501D01*
X100317D02*
X101316Y-5501D01*
X103316D01*
X104315Y-6501D01*
Y-10499D01*
X103316Y-11499D01*
X101316D01*
X100317Y-10499D01*
Y-6501D01*
X106315Y-11499D02*
Y-7500D01*
X107314D01*
X108314Y-8500D01*
Y-11499D01*
Y-8500D01*
X109314Y-7500D01*
X110313Y-8500D01*
Y-11499D01*
X112313D02*
Y-7500D01*
X113312D01*
X114312Y-8500D01*
Y-11499D01*
Y-8500D01*
X115312Y-7500D01*
X116311Y-8500D01*
Y-11499D01*
X-11999Y51741D02*
X-12999Y52741D01*
Y54740D01*
X-11999Y55740D01*
X-11000D01*
X-10000Y54740D01*
Y53740D01*
Y54740D01*
X-9000Y55740D01*
X-8001D01*
X-7001Y54740D01*
Y52741D01*
X-8001Y51741D01*
X-12999Y57739D02*
Y61738D01*
X-11999D01*
X-8001Y57739D01*
X-7001D01*
Y63737D02*
X-8001D01*
Y64737D01*
X-7001D01*
Y63737D01*
X-11999Y68735D02*
X-12999Y69735D01*
Y71734D01*
X-11999Y72734D01*
X-8001D01*
X-7001Y71734D01*
Y69735D01*
X-8001Y68735D01*
X-11999D01*
Y74734D02*
X-12999Y75733D01*
Y77732D01*
X-11999Y78732D01*
X-8001D01*
X-7001Y77732D01*
Y75733D01*
X-8001Y74734D01*
X-11999D01*
X-7001Y80732D02*
X-11000D01*
Y81731D01*
X-10000Y82731D01*
X-7001D01*
X-10000D01*
X-11000Y83731D01*
X-10000Y84730D01*
X-7001D01*
Y86730D02*
X-11000D01*
Y87729D01*
X-10000Y88729D01*
X-7001D01*
X-10000D01*
X-11000Y89729D01*
X-10000Y90728D01*
X-7001D01*
M02*
