G04*
G04 #@! TF.GenerationSoftware,Altium Limited,Altium Designer,20.0.2 (26)*
G04*
G04 Layer_Color=128*
%FSLAX25Y25*%
%MOIN*%
G70*
G01*
G75*
%ADD106R,0.01181X0.09055*%
D106*
X128346Y23622D02*
D03*
X125197D02*
D03*
X122047D02*
D03*
X118897D02*
D03*
X115748D02*
D03*
X112598D02*
D03*
X109449D02*
D03*
X106299D02*
D03*
X103149D02*
D03*
X100000D02*
D03*
X96850D02*
D03*
X93701D02*
D03*
X90551D02*
D03*
X87401D02*
D03*
X84252D02*
D03*
X81102D02*
D03*
X77953D02*
D03*
X74803D02*
D03*
X71653D02*
D03*
X68504D02*
D03*
X128347Y7874D02*
D03*
X125197D02*
D03*
X122047D02*
D03*
X118898D02*
D03*
X115748D02*
D03*
X112599D02*
D03*
X109449D02*
D03*
X106299D02*
D03*
X103150D02*
D03*
X100000D02*
D03*
X96851D02*
D03*
X93701D02*
D03*
X90551D02*
D03*
X87402D02*
D03*
X84252D02*
D03*
X81103D02*
D03*
X77953D02*
D03*
X74803D02*
D03*
X71654D02*
D03*
X68504D02*
D03*
X128346Y137795D02*
D03*
X125197D02*
D03*
X122047D02*
D03*
X118897D02*
D03*
X115748D02*
D03*
X112598D02*
D03*
X109449D02*
D03*
X106299D02*
D03*
X103149D02*
D03*
X100000D02*
D03*
X96850D02*
D03*
X93701D02*
D03*
X90551D02*
D03*
X87401D02*
D03*
X84252D02*
D03*
X81102D02*
D03*
X77953D02*
D03*
X74803D02*
D03*
X71653D02*
D03*
X68504D02*
D03*
X128347Y122047D02*
D03*
X125197D02*
D03*
X122047D02*
D03*
X118898D02*
D03*
X115748D02*
D03*
X112599D02*
D03*
X109449D02*
D03*
X106299D02*
D03*
X103150D02*
D03*
X100000D02*
D03*
X96851D02*
D03*
X93701D02*
D03*
X90551D02*
D03*
X87402D02*
D03*
X84252D02*
D03*
X81103D02*
D03*
X77953D02*
D03*
X74803D02*
D03*
X71654D02*
D03*
X68504D02*
D03*
M02*
