G04*
G04 #@! TF.GenerationSoftware,Altium Limited,Altium Designer,20.0.2 (26)*
G04*
G04 Layer_Color=128*
%FSLAX25Y25*%
%MOIN*%
G70*
G01*
G75*
%ADD110C,0.00200*%
D110*
X184189Y3314D02*
X186551D01*
X185370Y2133D02*
Y4495D01*
X184189Y37330D02*
X186551D01*
X185370Y36149D02*
Y38511D01*
X167732Y3314D02*
X170094D01*
X168913Y2133D02*
Y4495D01*
X167732Y37330D02*
X170094D01*
X168913Y36149D02*
Y38511D01*
X169720Y8944D02*
X172280D01*
X171000Y7665D02*
Y10223D01*
X169720Y31700D02*
X172280D01*
X171000Y30421D02*
Y32980D01*
X184319Y42384D02*
X186681D01*
X185500Y41203D02*
Y43565D01*
X184319Y76400D02*
X186681D01*
X185500Y75219D02*
Y77581D01*
X167862Y42384D02*
X170224D01*
X169043Y41203D02*
Y43565D01*
X167862Y76400D02*
X170224D01*
X169043Y75219D02*
Y77581D01*
X169851Y48014D02*
X172409D01*
X171130Y46734D02*
Y49294D01*
X169851Y70770D02*
X172409D01*
X171130Y69490D02*
Y72049D01*
X191700Y66500D02*
X192900D01*
X192300Y65900D02*
Y67100D01*
X191700Y56500D02*
X192900D01*
X192300Y55900D02*
Y57100D01*
X191700Y46500D02*
X192900D01*
X192300Y45900D02*
Y47100D01*
X191700Y36500D02*
X192900D01*
X192300Y35900D02*
Y37100D01*
X191700Y26500D02*
X192900D01*
X192300Y25900D02*
Y27100D01*
X191700Y16500D02*
X192900D01*
X192300Y15900D02*
Y17100D01*
X191700Y6500D02*
X192900D01*
X192300Y5900D02*
Y7100D01*
X189200Y141500D02*
X190400D01*
X189800Y140900D02*
Y142100D01*
X189200Y71500D02*
X190400D01*
X189800Y70900D02*
Y72100D01*
X186700Y66500D02*
X187900D01*
X187300Y65900D02*
Y67100D01*
X189200Y61500D02*
X190400D01*
X189800Y60900D02*
Y62100D01*
X186700Y56500D02*
X187900D01*
X187300Y55900D02*
Y57100D01*
X189200Y51500D02*
X190400D01*
X189800Y50900D02*
Y52100D01*
X186700Y46500D02*
X187900D01*
X187300Y45900D02*
Y47100D01*
X189200Y31500D02*
X190400D01*
X189800Y30900D02*
Y32100D01*
X186700Y26500D02*
X187900D01*
X187300Y25900D02*
Y27100D01*
X189200Y21500D02*
X190400D01*
X189800Y20900D02*
Y22100D01*
X186700Y16500D02*
X187900D01*
X187300Y15900D02*
Y17100D01*
X189200Y11500D02*
X190400D01*
X189800Y10900D02*
Y12100D01*
X184200Y141500D02*
X185400D01*
X184800Y140900D02*
Y142100D01*
X184200Y81500D02*
X185400D01*
X184800Y80900D02*
Y82100D01*
X184200Y71500D02*
X185400D01*
X184800Y70900D02*
Y72100D01*
X181700Y66500D02*
X182900D01*
X182300Y65900D02*
Y67100D01*
X184200Y61500D02*
X185400D01*
X184800Y60900D02*
Y62100D01*
X181700Y56500D02*
X182900D01*
X182300Y55900D02*
Y57100D01*
X184200Y51500D02*
X185400D01*
X184800Y50900D02*
Y52100D01*
X184200Y31500D02*
X185400D01*
X184800Y30900D02*
Y32100D01*
X184200Y21500D02*
X185400D01*
X184800Y20900D02*
Y22100D01*
X184200Y11500D02*
X185400D01*
X184800Y10900D02*
Y12100D01*
X176700Y136500D02*
X177900D01*
X177300Y135900D02*
Y137100D01*
X176700Y6500D02*
X177900D01*
X177300Y5900D02*
Y7100D01*
X171700Y116500D02*
X172900D01*
X172300Y115900D02*
Y117100D01*
X166700Y96500D02*
X167900D01*
X167300Y95900D02*
Y97100D01*
X161700Y36500D02*
X162900D01*
X162300Y35900D02*
Y37100D01*
X159200Y41500D02*
X160400D01*
X159800Y40900D02*
Y42100D01*
X141700Y56500D02*
X142900D01*
X142300Y55900D02*
Y57100D01*
X131700Y56500D02*
X132900D01*
X132300Y55900D02*
Y57100D01*
X126700Y56500D02*
X127900D01*
X127300Y55900D02*
Y57100D01*
X64200Y101500D02*
X65400D01*
X64800Y100900D02*
Y102100D01*
X59200Y131500D02*
X60400D01*
X59800Y130900D02*
Y132100D01*
X56700Y96500D02*
X57900D01*
X57300Y95900D02*
Y97100D01*
X54200Y141500D02*
X55400D01*
X54800Y140900D02*
Y142100D01*
X51700Y96500D02*
X52900D01*
X52300Y95900D02*
Y97100D01*
X51700Y56500D02*
X52900D01*
X52300Y55900D02*
Y57100D01*
X46700Y136500D02*
X47900D01*
X47300Y135900D02*
Y137100D01*
X46700Y56500D02*
X47900D01*
X47300Y55900D02*
Y57100D01*
X41700Y96500D02*
X42900D01*
X42300Y95900D02*
Y97100D01*
X36700Y116500D02*
X37900D01*
X37300Y115900D02*
Y117100D01*
X34200Y141500D02*
X35400D01*
X34800Y140900D02*
Y142100D01*
X31700Y96500D02*
X32900D01*
X32300Y95900D02*
Y97100D01*
X24200Y141500D02*
X25400D01*
X24800Y140900D02*
Y142100D01*
X19200Y141500D02*
X20400D01*
X19800Y140900D02*
Y142100D01*
X14200Y141500D02*
X15400D01*
X14800Y140900D02*
Y142100D01*
X9200Y141500D02*
X10400D01*
X9800Y140900D02*
Y142100D01*
X6700Y136500D02*
X7900D01*
X7300Y135900D02*
Y137100D01*
X6700Y116500D02*
X7900D01*
X7300Y115900D02*
Y117100D01*
X6700Y96500D02*
X7900D01*
X7300Y95900D02*
Y97100D01*
X1700Y126500D02*
X2900D01*
X2300Y125900D02*
Y127100D01*
X4200Y121500D02*
X5400D01*
X4800Y120900D02*
Y122100D01*
X1700Y116500D02*
X2900D01*
X2300Y115900D02*
Y117100D01*
X1700Y106500D02*
X2900D01*
X2300Y105900D02*
Y107100D01*
X4200Y101500D02*
X5400D01*
X4800Y100900D02*
Y102100D01*
X1700Y96500D02*
X2900D01*
X2300Y95900D02*
Y97100D01*
X4200Y91500D02*
X5400D01*
X4800Y90900D02*
Y92100D01*
X1700Y86500D02*
X2900D01*
X2300Y85900D02*
Y87100D01*
X4200Y81500D02*
X5400D01*
X4800Y80900D02*
Y82100D01*
X1700Y16500D02*
X2900D01*
X2300Y15900D02*
Y17100D01*
X11409Y4100D02*
X12591D01*
X12000Y3509D02*
Y4691D01*
X49309Y4400D02*
X50491D01*
X49900Y3809D02*
Y4991D01*
X140209Y79199D02*
X141390D01*
X140799Y78609D02*
Y79790D01*
X149438Y60829D02*
X150619D01*
X150029Y60238D02*
Y61419D01*
X152957Y60443D02*
X154157D01*
X153557Y59843D02*
Y61043D01*
X108810Y131800D02*
X109991D01*
X109401Y131209D02*
Y132391D01*
X107109Y130100D02*
X108291D01*
X107700Y129509D02*
Y130691D01*
X124606Y143973D02*
X125787D01*
X125197Y143382D02*
Y144563D01*
X127756Y143973D02*
X128937D01*
X128346Y143382D02*
Y144563D01*
X121457Y143973D02*
X122638D01*
X122047Y143382D02*
Y144563D01*
X118307Y143973D02*
X119488D01*
X118897Y143382D02*
Y144563D01*
X115150Y143973D02*
X116331D01*
X115740Y143382D02*
Y144563D01*
X112055Y139500D02*
X113236D01*
X112646Y138909D02*
Y140091D01*
X108850Y139500D02*
X110031D01*
X109440Y138909D02*
Y140091D01*
X105709Y139500D02*
X106891D01*
X106300Y138909D02*
Y140091D01*
X102555Y139500D02*
X103736D01*
X103146Y138909D02*
Y140091D01*
X99410Y122047D02*
X100591D01*
X100000Y121457D02*
Y122638D01*
X96260Y122047D02*
X97441D01*
X96851Y121457D02*
Y122638D01*
X84867Y100643D02*
X86048D01*
X85458Y100052D02*
Y101233D01*
X74209Y141300D02*
X75390D01*
X74800Y140709D02*
Y141891D01*
X61418Y141300D02*
X62599D01*
X62009Y140709D02*
Y141891D01*
X74910Y104700D02*
X76091D01*
X75500Y104109D02*
Y105291D01*
X57459Y123050D02*
X58640D01*
X58050Y122459D02*
Y123641D01*
X62709Y16900D02*
X63890D01*
X63300Y16309D02*
Y17491D01*
X53509Y17300D02*
X54690D01*
X54100Y16710D02*
Y17890D01*
X122109Y1700D02*
X123291D01*
X122700Y1110D02*
Y2291D01*
X153800Y10600D02*
X155000D01*
X154400Y10000D02*
Y11200D01*
X144309Y7500D02*
X145491D01*
X144900Y6909D02*
Y8091D01*
X83710Y19876D02*
X84891D01*
X84300Y19285D02*
Y20466D01*
X78909Y29300D02*
X80090D01*
X79500Y28709D02*
Y29891D01*
X83661Y29300D02*
X84842D01*
X84252Y28709D02*
Y29891D01*
X10700Y14100D02*
X11900D01*
X11300Y13500D02*
Y14700D01*
X34296Y18000D02*
X35477D01*
X34886Y17410D02*
Y18590D01*
X47709Y11800D02*
X48891D01*
X48300Y11209D02*
Y12391D01*
X14709Y10000D02*
X15890D01*
X15300Y9409D02*
Y10591D01*
X54110Y4700D02*
X55291D01*
X54700Y4109D02*
Y5291D01*
X56910Y3000D02*
X58091D01*
X57500Y2410D02*
Y3591D01*
X62510Y5500D02*
X63691D01*
X63100Y4909D02*
Y6091D01*
X61809Y3200D02*
X62990D01*
X62400Y2609D02*
Y3791D01*
X41309Y13300D02*
X42491D01*
X41900Y12709D02*
Y13891D01*
X172309Y9400D02*
X173491D01*
X172900Y8809D02*
Y9991D01*
X172709Y48000D02*
X173891D01*
X173300Y47409D02*
Y48591D01*
X172609Y31800D02*
X173791D01*
X173200Y31209D02*
Y32391D01*
X147409Y115700D02*
X148591D01*
X148000Y115109D02*
Y116291D01*
X149409Y108900D02*
X150591D01*
X150000Y108309D02*
Y109491D01*
X136109Y93400D02*
X137291D01*
X136700Y92809D02*
Y93990D01*
X159009Y135600D02*
X160191D01*
X159600Y135009D02*
Y136191D01*
X151709Y134900D02*
X152891D01*
X152300Y134309D02*
Y135491D01*
X97409Y100700D02*
X98590D01*
X98000Y100110D02*
Y101291D01*
X105609Y109100D02*
X106791D01*
X106200Y108509D02*
Y109691D01*
X103209Y109200D02*
X104391D01*
X103800Y108609D02*
Y109791D01*
X105409Y85100D02*
X106591D01*
X106000Y84509D02*
Y85690D01*
X38709Y17600D02*
X39891D01*
X39300Y17009D02*
Y18191D01*
X9081Y83271D02*
X10262D01*
X9671Y82681D02*
Y83862D01*
X2562Y77951D02*
X3743D01*
X3152Y77361D02*
Y78542D01*
X127509Y131500D02*
X128691D01*
X128100Y130909D02*
Y132091D01*
X5109Y85000D02*
X6291D01*
X5700Y84409D02*
Y85590D01*
X29109Y140800D02*
X30291D01*
X29700Y140209D02*
Y141391D01*
X50009Y141000D02*
X51191D01*
X50600Y140409D02*
Y141591D01*
X36109Y34400D02*
X37291D01*
X36700Y33809D02*
Y34991D01*
X57209Y43800D02*
X58390D01*
X57800Y43209D02*
Y44391D01*
X86772Y75514D02*
X87953D01*
X87363Y74924D02*
Y76105D01*
X100967Y77542D02*
X102148D01*
X101558Y76952D02*
Y78133D01*
X113709Y75400D02*
X114891D01*
X114300Y74809D02*
Y75990D01*
X113709Y80100D02*
X114891D01*
X114300Y79510D02*
Y80690D01*
X113709Y77750D02*
X114891D01*
X114300Y77160D02*
Y78341D01*
X121109Y56000D02*
X122291D01*
X121700Y55409D02*
Y56590D01*
X173009Y137200D02*
X174191D01*
X173600Y136609D02*
Y137791D01*
X172009Y87100D02*
X173191D01*
X172600Y86510D02*
Y87691D01*
X122409Y46757D02*
X123591D01*
X123000Y46166D02*
Y47347D01*
X64609Y26000D02*
X65790D01*
X65200Y25409D02*
Y26591D01*
X6509Y131800D02*
X7691D01*
X7100Y131209D02*
Y132391D01*
X24110Y131800D02*
X25291D01*
X24700Y131209D02*
Y132391D01*
X36909Y122900D02*
X38091D01*
X37500Y122309D02*
Y123491D01*
X42309Y58800D02*
X43491D01*
X42900Y58210D02*
Y59390D01*
X146417Y52265D02*
X147598D01*
X147007Y51674D02*
Y52855D01*
X35709Y97100D02*
X36891D01*
X36300Y96509D02*
Y97690D01*
X61610Y98400D02*
X62791D01*
X62200Y97809D02*
Y98990D01*
X141109Y100100D02*
X142291D01*
X141700Y99510D02*
Y100690D01*
X128109Y41100D02*
X129291D01*
X128700Y40509D02*
Y41691D01*
X12109Y87300D02*
X13291D01*
X12700Y86709D02*
Y87890D01*
X130009Y50500D02*
X131191D01*
X130600Y49909D02*
Y51091D01*
X118709Y48900D02*
X119891D01*
X119300Y48309D02*
Y49491D01*
X111909Y62400D02*
X113091D01*
X112500Y61809D02*
Y62990D01*
X86811Y27800D02*
X87992D01*
X87401Y27209D02*
Y28391D01*
X162209Y75800D02*
X163391D01*
X162800Y75209D02*
Y76390D01*
X174009Y73400D02*
X175191D01*
X174600Y72809D02*
Y73990D01*
X179709Y76500D02*
X180891D01*
X180300Y75910D02*
Y77091D01*
X163290Y127410D02*
X164471D01*
X163881Y126819D02*
Y128000D01*
X123382Y110072D02*
X124563D01*
X123972Y109482D02*
Y110663D01*
X119682Y110200D02*
X120863D01*
X120272Y109609D02*
Y110791D01*
X93838Y98571D02*
X95019D01*
X94429Y97981D02*
Y99162D01*
X140209Y71901D02*
X141390D01*
X140799Y71310D02*
Y72491D01*
X21110Y16500D02*
X22290D01*
X21700Y15910D02*
Y17090D01*
X26272Y7300D02*
X27453D01*
X26863Y6709D02*
Y7891D01*
X23910Y37200D02*
X25091D01*
X24500Y36609D02*
Y37791D01*
X45709Y35548D02*
X46891D01*
X46300Y34958D02*
Y36139D01*
X7109Y47200D02*
X8291D01*
X7700Y46609D02*
Y47791D01*
X14809Y126600D02*
X15991D01*
X15400Y126009D02*
Y127191D01*
X9809Y126200D02*
X10991D01*
X10400Y125609D02*
Y126791D01*
X17210Y108900D02*
X18391D01*
X17800Y108309D02*
Y109491D01*
X21810Y110600D02*
X22990D01*
X22400Y110009D02*
Y111191D01*
X23709Y109400D02*
X24891D01*
X24300Y108809D02*
Y109991D01*
X23910Y40400D02*
X25091D01*
X24500Y39809D02*
Y40991D01*
X157309Y131000D02*
X158491D01*
X157900Y130409D02*
Y131591D01*
X186395Y95800D02*
X187576D01*
X186986Y95209D02*
Y96390D01*
X184081Y95800D02*
X185262D01*
X184671Y95209D02*
Y96390D01*
X53710Y7000D02*
X54891D01*
X54300Y6409D02*
Y7591D01*
X88410Y29300D02*
X89591D01*
X89000Y28709D02*
Y29891D01*
X122709Y57600D02*
X123891D01*
X123300Y57010D02*
Y58191D01*
X37508Y103700D02*
X38690D01*
X38099Y103109D02*
Y104291D01*
X33571Y103700D02*
X34753D01*
X34162Y103109D02*
Y104291D01*
X57193Y104700D02*
X58375D01*
X57784Y104109D02*
Y105291D01*
X59162Y103700D02*
X60344D01*
X59753Y103109D02*
Y104291D01*
X72941Y103700D02*
X74123D01*
X73532Y103109D02*
Y104291D01*
X35539Y104700D02*
X36720D01*
X36130Y104109D02*
Y105291D01*
X28209Y98800D02*
X29391D01*
X28800Y98210D02*
Y99391D01*
X26481Y96842D02*
X27662D01*
X27072Y96251D02*
Y97433D01*
X27584Y94845D02*
X28765D01*
X28175Y94254D02*
Y95436D01*
X76609Y77100D02*
X77790D01*
X77200Y76509D02*
Y77691D01*
X124609Y47100D02*
X125791D01*
X125200Y46509D02*
Y47691D01*
X33609Y43200D02*
X34791D01*
X34200Y42609D02*
Y43791D01*
X135767Y125879D02*
X136948D01*
X136357Y125289D02*
Y126470D01*
X137704Y127032D02*
X138885D01*
X138294Y126441D02*
Y127622D01*
X139704Y125879D02*
X140885D01*
X140295Y125289D02*
Y126470D01*
X141641Y127032D02*
X142822D01*
X142232Y126441D02*
Y127622D01*
X133767Y127032D02*
X134948D01*
X134358Y126441D02*
Y127622D01*
X147381Y55072D02*
X148562D01*
X147972Y54481D02*
Y55662D01*
X130109Y36300D02*
X131291D01*
X130700Y35709D02*
Y36891D01*
X130109Y31100D02*
X131291D01*
X130700Y30509D02*
Y31691D01*
X120751Y16158D02*
X121932D01*
X121342Y15568D02*
Y16749D01*
X124109Y17600D02*
X125291D01*
X124700Y17009D02*
Y18191D01*
X77362Y26622D02*
X78543D01*
X77953Y26032D02*
Y27213D01*
X74212Y26622D02*
X75394D01*
X74803Y26032D02*
Y27213D01*
X96722Y72080D02*
X97903D01*
X97312Y71490D02*
Y72671D01*
X98917Y72080D02*
X100099D01*
X99508Y71490D02*
Y72671D01*
X92346Y72084D02*
X93527D01*
X92936Y71493D02*
Y72674D01*
X94525Y72084D02*
X95707D01*
X95116Y71493D02*
Y72674D01*
X6132Y67178D02*
X7313D01*
X6722Y66587D02*
Y67769D01*
X24010Y105800D02*
X25190D01*
X24600Y105209D02*
Y106391D01*
X61130Y104700D02*
X62312D01*
X61721Y104109D02*
Y105291D01*
X47350Y104700D02*
X48531D01*
X47941Y104109D02*
Y105291D01*
X49319Y103700D02*
X50501D01*
X49910Y103109D02*
Y104291D01*
X26314Y73086D02*
X27495D01*
X26905Y72495D02*
Y73677D01*
X57910Y125400D02*
X59091D01*
X58500Y124809D02*
Y125991D01*
X50509Y125400D02*
X51691D01*
X51100Y124809D02*
Y125991D01*
X41479Y128300D02*
X42660D01*
X42070Y127709D02*
Y128891D01*
X37009Y130600D02*
X38191D01*
X37600Y130009D02*
Y131191D01*
X105709Y22100D02*
X106891D01*
X106300Y21509D02*
Y22691D01*
X80510Y19876D02*
X81691D01*
X81100Y19285D02*
Y20466D01*
X71109Y3200D02*
X72290D01*
X71700Y2609D02*
Y3791D01*
X27417Y63215D02*
X28598D01*
X28008Y62624D02*
Y63806D01*
X19662Y116947D02*
X20843D01*
X20253Y116356D02*
Y117538D01*
X32109Y117500D02*
X33291D01*
X32700Y116909D02*
Y118091D01*
X45382Y103700D02*
X46564D01*
X45973Y103109D02*
Y104291D01*
X43413Y104700D02*
X44594D01*
X44004Y104109D02*
Y105291D01*
X51288Y104700D02*
X52469D01*
X51878Y104109D02*
Y105291D01*
X26602Y100618D02*
X27783D01*
X27193Y100028D02*
Y101209D01*
X70973Y104700D02*
X72154D01*
X71563Y104109D02*
Y105291D01*
X143641Y125879D02*
X144822D01*
X144231Y125289D02*
Y126470D01*
X27509Y75100D02*
X28691D01*
X28100Y74510D02*
Y75691D01*
X26481Y88968D02*
X27662D01*
X27072Y88377D02*
Y89559D01*
X27584Y86971D02*
X28765D01*
X28175Y86380D02*
Y87562D01*
X81010Y48000D02*
X82191D01*
X81600Y47409D02*
Y48591D01*
X26314Y61275D02*
X27495D01*
X26905Y60684D02*
Y61866D01*
X39505Y44540D02*
X40687D01*
X40096Y43949D02*
Y45131D01*
X26314Y69149D02*
X27495D01*
X26905Y68558D02*
Y69740D01*
X26314Y65212D02*
X27495D01*
X26905Y64621D02*
Y65803D01*
X26301Y77036D02*
X27482D01*
X26892Y76445D02*
Y77627D01*
X80463Y1996D02*
X81644D01*
X81054Y1405D02*
Y2587D01*
X27417Y71089D02*
X28598D01*
X28008Y70498D02*
Y71680D01*
X57286Y53909D02*
X58467D01*
X57876Y53318D02*
Y54499D01*
X59267Y55028D02*
X60448D01*
X59857Y54437D02*
Y55619D01*
X61305Y53991D02*
X62486D01*
X61896Y53400D02*
Y54581D01*
X53329Y53928D02*
X54511D01*
X53920Y53337D02*
Y54519D01*
X55330Y55028D02*
X56511D01*
X55920Y54437D02*
Y55619D01*
X61409Y59400D02*
X62590D01*
X62000Y58810D02*
Y59991D01*
X159048Y60400D02*
X160230D01*
X159639Y59809D02*
Y60991D01*
X159048Y56439D02*
X160230D01*
X159639Y55848D02*
Y57029D01*
X37508Y43437D02*
X38689D01*
X38099Y42847D02*
Y44028D01*
X152800Y76200D02*
X154000D01*
X153400Y75600D02*
Y76800D01*
X69278Y57841D02*
X70460D01*
X69869Y57251D02*
Y58432D01*
X69278Y55502D02*
X70460D01*
X69869Y54912D02*
Y56093D01*
X69278Y60180D02*
X70460D01*
X69869Y59590D02*
Y60771D01*
X69278Y67198D02*
X70460D01*
X69869Y66607D02*
Y67788D01*
X69278Y62520D02*
X70460D01*
X69869Y61929D02*
Y63110D01*
X69278Y64859D02*
X70460D01*
X69869Y64268D02*
Y65449D01*
X63478Y73700D02*
X64660D01*
X64069Y73110D02*
Y74291D01*
X61173Y73700D02*
X62354D01*
X61764Y73110D02*
Y74291D01*
X58781Y73700D02*
X59962D01*
X59371Y73110D02*
Y74291D01*
X56388Y73700D02*
X57569D01*
X56978Y73110D02*
Y74291D01*
X147909Y78000D02*
X149091D01*
X148500Y77409D02*
Y78591D01*
X168309Y100500D02*
X169491D01*
X168900Y99910D02*
Y101091D01*
X27691Y113382D02*
X28872D01*
X28282Y112791D02*
Y113972D01*
X152720Y89811D02*
X153902D01*
X153311Y89220D02*
Y90402D01*
X161715Y93200D02*
X162896D01*
X162305Y92610D02*
Y93791D01*
X49209Y76300D02*
X50391D01*
X49800Y75709D02*
Y76890D01*
X44552Y80958D02*
X45733D01*
X45142Y80367D02*
Y81549D01*
X75293Y80107D02*
X76474D01*
X75883Y79517D02*
Y80698D01*
X167267Y118458D02*
X168448D01*
X167858Y117867D02*
Y119048D01*
X152609Y98600D02*
X153791D01*
X153200Y98010D02*
Y99190D01*
X169236Y126342D02*
X170417D01*
X169826Y125752D02*
Y126933D01*
X75293Y87198D02*
X76474D01*
X75883Y86607D02*
Y87788D01*
X75293Y89591D02*
X76474D01*
X75883Y89000D02*
Y90181D01*
X75293Y84805D02*
X76474D01*
X75883Y84215D02*
Y85396D01*
X75293Y82412D02*
X76474D01*
X75883Y81822D02*
Y83003D01*
X101113Y72080D02*
X102295D01*
X101704Y71490D02*
Y72671D01*
X103309Y72080D02*
X104491D01*
X103900Y71490D02*
Y72671D01*
X97381Y59300D02*
X98562D01*
X97972Y58710D02*
Y59891D01*
X177138Y100400D02*
X178319D01*
X177729Y99809D02*
Y100990D01*
X184081Y100400D02*
X185262D01*
X184671Y99809D02*
Y100990D01*
X174824Y100400D02*
X176005D01*
X175414Y99809D02*
Y100990D01*
X179452Y100400D02*
X180633D01*
X180043Y99809D02*
Y100990D01*
X172509Y95800D02*
X173691D01*
X173100Y95209D02*
Y96390D01*
X172800Y92800D02*
X174000D01*
X173400Y92200D02*
Y93400D01*
X177138Y95800D02*
X178319D01*
X177729Y95209D02*
Y96390D01*
X174824Y95800D02*
X176005D01*
X175414Y95209D02*
Y96390D01*
X179452Y95800D02*
X180633D01*
X180043Y95209D02*
Y96390D01*
X76310Y96700D02*
X77491D01*
X76900Y96109D02*
Y97290D01*
X75209Y98700D02*
X76390D01*
X75800Y98110D02*
Y99291D01*
X69004Y103700D02*
X70186D01*
X69595Y103109D02*
Y104291D01*
X188709Y100400D02*
X189891D01*
X189300Y99809D02*
Y100990D01*
X186395Y100400D02*
X187576D01*
X186986Y99809D02*
Y100990D01*
X181767Y100400D02*
X182948D01*
X182357Y99809D02*
Y100990D01*
X172509Y100400D02*
X173691D01*
X173100Y99809D02*
Y100990D01*
X181767Y95800D02*
X182948D01*
X182357Y95209D02*
Y96390D01*
X188709Y95800D02*
X189891D01*
X189300Y95209D02*
Y96390D01*
X172509Y98100D02*
X173691D01*
X173100Y97509D02*
Y98690D01*
X174824Y98100D02*
X176005D01*
X175414Y97509D02*
Y98690D01*
X177138Y98100D02*
X178319D01*
X177729Y97509D02*
Y98690D01*
X179452Y98100D02*
X180633D01*
X180043Y97509D02*
Y98690D01*
X181767Y98100D02*
X182948D01*
X182357Y97509D02*
Y98690D01*
X184081Y98100D02*
X185262D01*
X184671Y97509D02*
Y98690D01*
X186395Y98100D02*
X187576D01*
X186986Y97509D02*
Y98690D01*
X188709Y98100D02*
X189891D01*
X189300Y97509D02*
Y98690D01*
X168309Y114200D02*
X169491D01*
X168900Y113609D02*
Y114791D01*
X165299Y126342D02*
X166480D01*
X165889Y125752D02*
Y126933D01*
X168309Y111800D02*
X169491D01*
X168900Y111209D02*
Y112391D01*
X183015Y118573D02*
X184196D01*
X183606Y117982D02*
Y119163D01*
X184984Y116941D02*
X186165D01*
X185574Y116351D02*
Y117532D01*
X149551Y116941D02*
X150732D01*
X150141Y116351D02*
Y117532D01*
X75293Y91983D02*
X76474D01*
X75883Y91393D02*
Y92574D01*
X75293Y94376D02*
X76474D01*
X75883Y93786D02*
Y94967D01*
X145809Y26400D02*
X146991D01*
X146400Y25809D02*
Y26991D01*
X145709Y30700D02*
X146891D01*
X146300Y30109D02*
Y31291D01*
X141309Y18600D02*
X142491D01*
X141900Y18010D02*
Y19191D01*
X146316Y18100D02*
X147497D01*
X146907Y17510D02*
Y18690D01*
X149381Y30300D02*
X150562D01*
X149972Y29709D02*
Y30891D01*
X155456Y118573D02*
X156637D01*
X156047Y117982D02*
Y119163D01*
X151519Y118573D02*
X152700D01*
X152110Y117982D02*
Y119163D01*
X179900Y112859D02*
X181100D01*
X180500Y112259D02*
Y113459D01*
X192800Y112859D02*
X194000D01*
X193400Y112259D02*
Y113459D01*
X177100Y126559D02*
X178300D01*
X177700Y125959D02*
Y127159D01*
X191213Y78644D02*
X192413D01*
X191813Y78044D02*
Y79244D01*
X156859Y37500D02*
X158059D01*
X157459Y36900D02*
Y38100D01*
X29496Y121451D02*
X30696D01*
X30096Y120851D02*
Y122051D01*
X6900Y113745D02*
X8100D01*
X7500Y113145D02*
Y114345D01*
X29650Y103964D02*
X30850D01*
X30250Y103364D02*
Y104564D01*
X2998Y11577D02*
X4198D01*
X3598Y10977D02*
Y12177D01*
X168778Y17369D02*
X169959D01*
X169369Y16779D02*
Y17959D01*
X168778Y23275D02*
X169959D01*
X169369Y22684D02*
Y23866D01*
X141309Y23600D02*
X142491D01*
X141900Y23009D02*
Y24191D01*
M02*
