G04*
G04 #@! TF.GenerationSoftware,Altium Limited,Altium Designer,20.0.2 (26)*
G04*
G04 Layer_Color=8388736*
%FSLAX25Y25*%
%MOIN*%
G70*
G01*
G75*
%ADD61R,0.04737X0.03162*%
%ADD62R,0.05426X0.02729*%
%ADD63R,0.05355X0.02729*%
%ADD64R,0.04800X0.03162*%
%ADD65R,0.02375X0.02769*%
%ADD66O,0.06699X0.01581*%
%ADD67O,0.01581X0.06699*%
%ADD68O,0.08674X0.02965*%
%ADD69R,0.07099X0.03556*%
%ADD70R,0.10249X0.03556*%
G04:AMPARAMS|DCode=71|XSize=86.74mil|YSize=141.86mil|CornerRadius=0mil|HoleSize=0mil|Usage=FLASHONLY|Rotation=90.000|XOffset=0mil|YOffset=0mil|HoleType=Round|Shape=Octagon|*
%AMOCTAGOND71*
4,1,8,-0.07093,-0.02169,-0.07093,0.02169,-0.04924,0.04337,0.04924,0.04337,0.07093,0.02169,0.07093,-0.02169,0.04924,-0.04337,-0.04924,-0.04337,-0.07093,-0.02169,0.0*
%
%ADD71OCTAGOND71*%

%ADD72R,0.02769X0.02375*%
%ADD73R,0.05524X0.06312*%
%ADD74C,0.04737*%
%ADD75R,0.08268X0.01575*%
%ADD76R,0.04800X0.05800*%
%ADD77R,0.04461X0.04658*%
%ADD78R,0.05642X0.06154*%
%ADD79R,0.03800X0.03800*%
%ADD80R,0.04658X0.04461*%
%ADD81R,0.04737X0.07887*%
%ADD82R,0.05918X0.05131*%
%ADD83O,0.06306X0.01975*%
%ADD84R,0.04331X0.11417*%
%ADD85R,0.02756X0.07087*%
%ADD86R,0.14580X0.18123*%
%ADD87R,0.04737X0.02572*%
%ADD88R,0.07887X0.09461*%
%ADD89R,0.01981X0.05918*%
%ADD90O,0.05524X0.01981*%
%ADD91O,0.01981X0.05524*%
%ADD92R,0.01981X0.05524*%
%ADD93R,0.04737X0.04737*%
%ADD94R,0.03800X0.03800*%
%ADD95O,0.07087X0.04725*%
%ADD96O,0.09055X0.04725*%
%ADD97C,0.02953*%
D61*
X96622Y112000D02*
D03*
Y117400D02*
D03*
X104222Y114700D02*
D03*
D62*
X155942Y21840D02*
D03*
Y14360D02*
D03*
D63*
X146858D02*
D03*
Y18100D02*
D03*
Y21840D02*
D03*
D64*
X97152Y28801D02*
D03*
X104152D02*
D03*
X97152Y31950D02*
D03*
X104152D02*
D03*
X97152Y35100D02*
D03*
X104152D02*
D03*
X97152Y38250D02*
D03*
X104152D02*
D03*
D65*
X97971Y77000D02*
D03*
X94625D02*
D03*
X94529Y52053D02*
D03*
X97875D02*
D03*
X153671Y71200D02*
D03*
X150128Y71200D02*
D03*
X153625Y32400D02*
D03*
X157168Y32400D02*
D03*
X150029Y3300D02*
D03*
X153572Y3300D02*
D03*
X29225Y16499D02*
D03*
X32571D02*
D03*
X146429Y32400D02*
D03*
X149972Y32400D02*
D03*
X146429Y28200D02*
D03*
X149972Y28200D02*
D03*
X153625Y28200D02*
D03*
X156971D02*
D03*
X98979Y16500D02*
D03*
X102325D02*
D03*
X75553Y16499D02*
D03*
X78899D02*
D03*
X102325Y24169D02*
D03*
X98979D02*
D03*
X102325Y20400D02*
D03*
X98979D02*
D03*
X9671Y55300D02*
D03*
X6128Y55300D02*
D03*
X9671Y108800D02*
D03*
X6128Y108800D02*
D03*
X94429Y102600D02*
D03*
X97972Y102600D02*
D03*
X94429Y59300D02*
D03*
X97972Y59300D02*
D03*
X97971Y48353D02*
D03*
X94428Y48353D02*
D03*
X97875Y55653D02*
D03*
X94529D02*
D03*
X153474Y55072D02*
D03*
X150127D02*
D03*
X153474Y51300D02*
D03*
X150127D02*
D03*
X150029Y58700D02*
D03*
X153572Y58700D02*
D03*
X6129Y31800D02*
D03*
X9475D02*
D03*
X6129Y43100D02*
D03*
X9475D02*
D03*
Y16500D02*
D03*
X6129D02*
D03*
Y20600D02*
D03*
X9672Y20600D02*
D03*
D66*
X22180Y55367D02*
D03*
Y57335D02*
D03*
Y59304D02*
D03*
Y61272D02*
D03*
Y63241D02*
D03*
Y65209D02*
D03*
Y67178D02*
D03*
Y69146D02*
D03*
Y71115D02*
D03*
Y73083D02*
D03*
Y75052D02*
D03*
Y77021D02*
D03*
Y78989D02*
D03*
Y80958D02*
D03*
Y82926D02*
D03*
Y84895D02*
D03*
Y86863D02*
D03*
Y88832D02*
D03*
Y90800D02*
D03*
Y92769D02*
D03*
Y94737D02*
D03*
Y96706D02*
D03*
Y98674D02*
D03*
Y100643D02*
D03*
Y102611D02*
D03*
X81628D02*
D03*
Y100643D02*
D03*
Y98674D02*
D03*
Y96706D02*
D03*
Y94737D02*
D03*
Y92769D02*
D03*
Y90800D02*
D03*
Y88832D02*
D03*
Y86863D02*
D03*
Y84895D02*
D03*
Y82926D02*
D03*
Y80958D02*
D03*
Y78989D02*
D03*
Y77021D02*
D03*
Y75052D02*
D03*
Y73083D02*
D03*
Y71115D02*
D03*
Y69146D02*
D03*
Y67178D02*
D03*
Y65209D02*
D03*
Y63241D02*
D03*
Y61272D02*
D03*
Y59304D02*
D03*
Y57335D02*
D03*
Y55367D02*
D03*
D67*
X28282Y108713D02*
D03*
X30250D02*
D03*
X32219D02*
D03*
X34187D02*
D03*
X36156D02*
D03*
X38124D02*
D03*
X40093D02*
D03*
X42061D02*
D03*
X44030D02*
D03*
X45998D02*
D03*
X47967D02*
D03*
X49936D02*
D03*
X51904D02*
D03*
X53873D02*
D03*
X55841D02*
D03*
X57810D02*
D03*
X59778D02*
D03*
X61747D02*
D03*
X63715D02*
D03*
X65684D02*
D03*
X67652D02*
D03*
X69621D02*
D03*
X71589D02*
D03*
X73558D02*
D03*
X75526D02*
D03*
Y49265D02*
D03*
X73558D02*
D03*
X71589D02*
D03*
X69621D02*
D03*
X67652D02*
D03*
X65684D02*
D03*
X63715D02*
D03*
X61747D02*
D03*
X59778D02*
D03*
X57810D02*
D03*
X55841D02*
D03*
X53873D02*
D03*
X51904D02*
D03*
X49936D02*
D03*
X47967D02*
D03*
X45998D02*
D03*
X44030D02*
D03*
X42061D02*
D03*
X40093D02*
D03*
X38124D02*
D03*
X36156D02*
D03*
X34187D02*
D03*
X32219D02*
D03*
X30250D02*
D03*
X28282D02*
D03*
D68*
X135800Y18600D02*
D03*
Y23600D02*
D03*
Y3600D02*
D03*
Y8600D02*
D03*
Y13600D02*
D03*
Y28600D02*
D03*
Y33600D02*
D03*
Y38600D02*
D03*
X114700Y3600D02*
D03*
Y8600D02*
D03*
Y13600D02*
D03*
Y18600D02*
D03*
Y23600D02*
D03*
Y28600D02*
D03*
Y33600D02*
D03*
Y38600D02*
D03*
D69*
X148500Y89811D02*
D03*
Y78000D02*
D03*
D70*
X149987Y83906D02*
D03*
D71*
X160987Y83806D02*
D03*
D72*
X175998Y92831D02*
D03*
X175997Y89288D02*
D03*
X36700Y36871D02*
D03*
X36700Y33328D02*
D03*
X40740Y36871D02*
D03*
X40740Y33328D02*
D03*
X48820Y36871D02*
D03*
X48820Y33328D02*
D03*
X52860Y33427D02*
D03*
Y36773D02*
D03*
X56900Y33329D02*
D03*
X56900Y36872D02*
D03*
X44780Y36871D02*
D03*
X44780Y33328D02*
D03*
X116572Y115873D02*
D03*
Y112527D02*
D03*
X112772Y115873D02*
D03*
Y112527D02*
D03*
X108972Y115873D02*
D03*
Y112527D02*
D03*
X184700Y106903D02*
D03*
Y103556D02*
D03*
X188500Y107099D02*
D03*
X188500Y103556D02*
D03*
X91800Y112725D02*
D03*
Y116071D02*
D03*
X147000Y106903D02*
D03*
Y103556D02*
D03*
X175500Y107099D02*
D03*
X175500Y103556D02*
D03*
X143000Y103429D02*
D03*
X143000Y106972D02*
D03*
X68800Y36840D02*
D03*
Y33493D02*
D03*
X82600D02*
D03*
Y36840D02*
D03*
X120272Y112523D02*
D03*
Y115869D02*
D03*
X123972Y112523D02*
D03*
Y115869D02*
D03*
X65000Y33329D02*
D03*
X65000Y36872D02*
D03*
X72700Y33297D02*
D03*
X72700Y36840D02*
D03*
X61000Y33427D02*
D03*
Y36773D02*
D03*
D73*
X191813Y83000D02*
D03*
X178427D02*
D03*
D74*
X193700Y89800D02*
D03*
D75*
X164228Y19338D02*
D03*
Y21306D02*
D03*
Y7133D02*
D03*
Y10283D02*
D03*
Y15401D02*
D03*
Y25243D02*
D03*
Y30361D02*
D03*
Y33511D02*
D03*
Y32330D02*
D03*
Y29180D02*
D03*
Y27212D02*
D03*
Y23275D02*
D03*
Y17369D02*
D03*
Y13432D02*
D03*
Y11464D02*
D03*
Y8314D02*
D03*
X164358Y46203D02*
D03*
Y49353D02*
D03*
Y54471D02*
D03*
Y58408D02*
D03*
Y60376D02*
D03*
Y64313D02*
D03*
Y69431D02*
D03*
Y72581D02*
D03*
Y71400D02*
D03*
Y68250D02*
D03*
Y66282D02*
D03*
Y62345D02*
D03*
Y56439D02*
D03*
Y52502D02*
D03*
Y50534D02*
D03*
Y47384D02*
D03*
D76*
X147545Y45000D02*
D03*
X156045D02*
D03*
X156056Y65000D02*
D03*
X147556D02*
D03*
D77*
X98290Y4400D02*
D03*
X104353D02*
D03*
X98290Y11096D02*
D03*
X104353D02*
D03*
X10932Y26300D02*
D03*
X4868D02*
D03*
X10932Y37400D02*
D03*
X4868D02*
D03*
D78*
X26863Y7300D02*
D03*
X44067D02*
D03*
X73521D02*
D03*
X90725D02*
D03*
X50192D02*
D03*
X67396D02*
D03*
X3534Y7264D02*
D03*
X20738D02*
D03*
D79*
X149241Y37500D02*
D03*
X154359D02*
D03*
X149241Y8400D02*
D03*
X154359D02*
D03*
D80*
X181139Y96882D02*
D03*
Y90819D02*
D03*
X187700Y96882D02*
D03*
Y90819D02*
D03*
D81*
X29694Y25981D02*
D03*
X41506D02*
D03*
D82*
X48372Y21160D02*
D03*
Y28640D02*
D03*
X57428Y21160D02*
D03*
X57428Y28640D02*
D03*
D83*
X114073Y54359D02*
D03*
Y51800D02*
D03*
Y49241D02*
D03*
Y46682D02*
D03*
X136513Y54359D02*
D03*
Y51800D02*
D03*
Y49241D02*
D03*
Y46682D02*
D03*
D84*
X3127Y138800D02*
D03*
X42300D02*
D03*
D85*
X10411Y126398D02*
D03*
X15331D02*
D03*
X35017D02*
D03*
X30096D02*
D03*
X25175D02*
D03*
X20253D02*
D03*
D86*
X125150Y71800D02*
D03*
D87*
X140799Y79300D02*
D03*
Y74300D02*
D03*
Y69300D02*
D03*
Y64300D02*
D03*
X109500D02*
D03*
Y69300D02*
D03*
Y74300D02*
D03*
Y79300D02*
D03*
D88*
X192070Y132231D02*
D03*
X102306Y132231D02*
D03*
D89*
X169826Y122400D02*
D03*
X171795D02*
D03*
X185574D02*
D03*
X183606D02*
D03*
X181637D02*
D03*
X179669D02*
D03*
X177700D02*
D03*
X175732D02*
D03*
X173763D02*
D03*
X167858D02*
D03*
X165889D02*
D03*
X163921D02*
D03*
X161952D02*
D03*
X159984D02*
D03*
X158015D02*
D03*
X156047D02*
D03*
X154078D02*
D03*
X152110D02*
D03*
X150141D02*
D03*
X148173D02*
D03*
X146204D02*
D03*
X144236D02*
D03*
X142267D02*
D03*
X140299D02*
D03*
X138330D02*
D03*
X136362D02*
D03*
X134393D02*
D03*
X132425D02*
D03*
X130456D02*
D03*
X128488D02*
D03*
X126519D02*
D03*
X124551D02*
D03*
X122582D02*
D03*
X120614D02*
D03*
X118645D02*
D03*
X116677D02*
D03*
X114708D02*
D03*
X112740D02*
D03*
X110771D02*
D03*
X108803D02*
D03*
D90*
X153152Y102523D02*
D03*
Y105082D02*
D03*
Y107641D02*
D03*
Y110200D02*
D03*
X168900D02*
D03*
Y107641D02*
D03*
Y105082D02*
D03*
Y102523D02*
D03*
D91*
X157187Y114235D02*
D03*
X159747D02*
D03*
X162305D02*
D03*
X164865D02*
D03*
X164865Y98487D02*
D03*
X162305D02*
D03*
X159747D02*
D03*
D92*
X157187D02*
D03*
D93*
X161026Y106361D02*
D03*
D94*
X193400Y109759D02*
D03*
Y104641D02*
D03*
X180500Y109759D02*
D03*
Y104641D02*
D03*
X77600Y30637D02*
D03*
Y35756D02*
D03*
D95*
X185370Y3314D02*
D03*
Y37330D02*
D03*
X185500Y42384D02*
D03*
Y76400D02*
D03*
D96*
X168913Y3314D02*
D03*
Y37330D02*
D03*
X169043Y42384D02*
D03*
Y76400D02*
D03*
D97*
X171000Y8944D02*
D03*
Y31700D02*
D03*
X171130Y48014D02*
D03*
Y70770D02*
D03*
M02*
