G04*
G04 #@! TF.GenerationSoftware,Altium Limited,Altium Designer,20.0.2 (26)*
G04*
G04 Layer_Color=16711935*
%FSLAX25Y25*%
%MOIN*%
G70*
G01*
G75*
%ADD26C,0.00394*%
D26*
X155072Y90405D02*
G03*
X155072Y90405I-984J0D01*
G01*
X132773Y47721D02*
G03*
X132773Y47721I-1969J0D01*
G01*
X156695Y100456D02*
G03*
X156695Y100456I-787J0D01*
G01*
X151469Y74850D02*
X161706D01*
X151469Y92961D02*
X161706D01*
Y74850D02*
Y92961D01*
X151469Y74850D02*
Y92961D01*
X102109Y2825D02*
Y5975D01*
X100534Y4400D02*
X102109Y5975D01*
X100534Y4400D02*
X102109Y2825D01*
X100534D02*
Y5975D01*
X99747Y4400D02*
X102896D01*
X101341Y6435D02*
X102522Y7616D01*
X100554Y6829D02*
X101735Y8010D01*
X102109Y9521D02*
Y12671D01*
X100534Y11096D02*
X102109Y12671D01*
X100534Y11096D02*
X102109Y9521D01*
X100534D02*
Y12671D01*
X99747Y11096D02*
X102896D01*
X101341Y13131D02*
X102522Y14313D01*
X100554Y13525D02*
X101735Y14706D01*
X116435Y56623D02*
X134151D01*
X116435Y44418D02*
X134151D01*
X116435D02*
Y56623D01*
X134151Y44418D02*
Y56623D01*
X7113Y24725D02*
Y27875D01*
Y24725D02*
X8687Y26300D01*
X7113Y27875D02*
X8687Y26300D01*
Y24725D02*
Y27875D01*
X6325Y26300D02*
X9475D01*
X6699Y23083D02*
X7880Y24265D01*
X7487Y22690D02*
X8668Y23871D01*
X7113Y35825D02*
Y38975D01*
Y35825D02*
X8687Y37400D01*
X7113Y38975D02*
X8687Y37400D01*
Y35825D02*
Y38975D01*
X6325Y37400D02*
X9475D01*
X6699Y34183D02*
X7880Y35365D01*
X7487Y33790D02*
X8668Y34971D01*
X168900Y98487D02*
Y114235D01*
X153152D02*
X168900D01*
X153152Y98487D02*
X168900D01*
X153152D02*
Y114235D01*
M02*
